PathFileType	4	(X/Y/Z)	/Users/mathieubourgeois/Desktop/Analyse/Traitement/Sujet_04/Transformed_Static_Sujet_04_Tpose.trc
DataRate	CameraRate	NumFrames	NumMarkers	Units	OrigDataRate	OrigDataStartFrame	OrigNumFrames
120.000000	120.000000	5	36	mm	120.000000	111	296
Frame#	Time	RFHD			RANE			STRN			LANI			LKNE			T10			RHUM			RWRB			C7			LFWT			LTOE			RTOE			LWRA			LBWT			RBWT			RFWT			LKNI			RKNI			RKNE			LANE			RANI			LHEE			RHEE			LHUM			LRAD			RRAD			RWRA			LWRB			LFHD			LBHD			RBHD			RSHO			LSHO			CLAV			LCAR			RCAR			
		X1	Y1	Z1	X2	Y2	Z2	X3	Y3	Z3	X4	Y4	Z4	X5	Y5	Z5	X6	Y6	Z6	X7	Y7	Z7	X8	Y8	Z8	X9	Y9	Z9	X10	Y10	Z10	X11	Y11	Z11	X12	Y12	Z12	X13	Y13	Z13	X14	Y14	Z14	X15	Y15	Z15	X16	Y16	Z16	X17	Y17	Z17	X18	Y18	Z18	X19	Y19	Z19	X20	Y20	Z20	X21	Y21	Z21	X22	Y22	Z22	X23	Y23	Z23	X24	Y24	Z24	X25	Y25	Z25	X26	Y26	Z26	X27	Y27	Z27	X28	Y28	Z28	X29	Y29	Z29	X30	Y30	Z30	X31	Y31	Z31	X32	Y32	Z32	X33	Y33	Z33	X34	Y34	Z34	X35	Y35	Z35	X36	Y36	Z36	

112	0.9249999999999999	-657.2090454101562	1780.752075195312	445.331085205078	-778.8314208984375	91.30642700195314	190.2794036865234	-590.5515747070312	1329.099609375	446.5606079101561	-553.7828369140625	99.92571258544923	240.4303741455078	-434.1143493652344	541.9578247070312	262.9619750976561	-588.9246215820312	1316.567749023438	208.757354736328	-1052.739624023438	1424.981689453125	304.6960449218748	-1327.182861328125	1510.373901367188	278.6445312499997	-598.8851928710938	1592.25830078125	269.3039245605467	-465.9519042968751	1063.494018554688	397.5876464843749	-484.2938537597657	35.51205825805667	420.8174133300781	-763.4315185546875	36.76120376586917	426.525421142578	118.6244964599609	1583.935791015625	275.9234924316405	-533.6521606445312	1111.274169921875	202.4039764404296	-663.0573120117188	1110.712524414062	192.5114440917967	-760.548095703125	1075.609497070312	373.5287780761717	-553.491455078125	500.6358337402344	263.181427001953	-666.6475219726562	503.712890625	285.6790161132811	-779.7508544921875	547.0547485351562	278.4386901855467	-466.090576171875	85.56958770751955	191.0744934082031	-690.2677612304688	97.48635101318361	228.9507446289062	-526.0474853515625	63.24150466918946	152.692642211914	-732.1748657226562	71.98071289062501	150.281768798828	-134.1335601806641	1443.9638671875	296.5558471679686	-133.6841583251953	1490.271606445312	239.8521270751952	-1059.78173828125	1475.481811523438	255.5882720947263	-1310.93994140625	1555.726196289062	328.357727050781	139.99609375	1507.191772460938	258.8284912109374	-524.7061157226562	1775.160400390625	431.6784362792967	-554.9779663085938	1733.603759765625	275.2281188964842	-690.8843994140625	1735.74951171875	298.4305114746092	-743.155029296875	1576.066650390625	292.7907409667966	-444.5349426269532	1589.93701171875	306.8682250976561	-588.2545776367188	1497.019165039062	401.0398559570311	231.6678161621093	1581.830688476562	241.1520996093749	-1420.066650390625	1563.775390625	294.8985595703122	
113	0.9333333333333333	-657.179443359375	1780.701416015625	445.3934326171873	-778.8239135742188	91.30696868896486	190.2604980468749	-590.531494140625	1329.096557617188	446.5197753906249	-553.807861328125	99.91967010498048	240.3913269042968	-434.1216735839844	541.962158203125	262.987823486328	-588.8987426757812	1316.552124023438	208.7371368408201	-1052.68408203125	1425.00048828125	304.6805114746091	-1327.126342773438	1510.374633789062	278.6254577636716	-598.8368530273438	1592.2509765625	269.2830200195311	-465.9592285156251	1063.480224609375	397.5941467285155	-484.3013000488282	35.51369857788089	420.8129882812499	-763.4307250976562	36.75856018066409	426.5206298828124	118.6890029907226	1583.837036132812	275.8789672851561	-533.6390380859375	1111.25341796875	202.4061737060546	-663.0408325195312	1110.70849609375	192.5017700195311	-760.5480346679688	1075.61279296875	373.5057678222655	-553.4904174804688	500.6219482421875	263.1901550292968	-666.6555786132812	503.7121276855469	285.6885681152343	-779.7577514648438	547.0501098632812	278.4223327636717	-466.2467956542969	85.9115676879883	190.9002075195312	-690.2562255859375	97.48110961914064	228.9701080322265	-526.0354614257812	63.24084091186524	152.6944580078124	-732.1688232421875	71.98257446289064	150.2877960205077	-134.0848541259766	1443.921630859375	296.5155334472655	-133.6327514648438	1490.234985351562	239.8227081298827	-1059.741333007812	1475.497924804688	255.553527832031	-1310.876586914062	1555.753784179688	328.2930603027341	140.0528411865234	1507.084228515625	258.7672424316405	-524.6917114257812	1775.119140625	431.7674865722655	-554.9176635742188	1733.636596679688	275.2897033691405	-690.8260498046875	1735.774536132812	298.4637756347655	-743.0853271484375	1576.078125	292.7332763671873	-444.4740600585938	1589.895874023438	306.8162231445311	-588.2115478515625	1497.0234375	400.9902954101561	231.7396087646484	1581.722045898438	241.0931243896484	-1420.005126953125	1563.791870117188	294.8349304199216	
114	0.9416666666666667	-657.1431884765625	1780.654418945312	445.4639282226561	-778.8314819335938	91.30442810058595	190.2641448974609	-590.5045776367188	1329.083129882812	446.489532470703	-553.8051147460938	99.9170608520508	240.3890228271484	-434.1196594238282	541.954833984375	262.9881286621093	-588.8565063476562	1316.5498046875	208.7088623046873	-1052.625	1425.010620117188	304.6632385253904	-1327.068603515625	1510.39111328125	278.594299316406	-598.7852783203125	1592.243041992188	269.2597351074217	-465.9780578613282	1063.466796875	397.6139221191405	-484.2991943359376	35.51514434814456	420.8156127929687	-763.4365844726562	36.76082611083987	426.518096923828	118.7469406127929	1583.75244140625	275.8391113281249	-533.5986938476562	1111.251953125	202.4024047851561	-663.0253295898438	1110.707763671875	192.4760589599608	-760.5653076171875	1075.623413085938	373.4936523437498	-553.486083984375	500.6226806640625	263.1972045898436	-666.6683349609375	503.7030944824219	285.6879882812499	-779.7611083984375	547.04638671875	278.4120483398436	-466.2359008789062	85.91485595703126	190.9090728759765	-690.261474609375	97.47778320312501	228.958770751953	-526.03076171875	63.22877883911134	152.6989593505859	-732.1578979492188	71.97499084472658	150.2789154052734	-134.0482025146485	1443.876831054688	296.4837036132811	-133.5883026123047	1490.201293945312	239.7794342041014	-1059.690795898438	1475.492797851562	255.515914916992	-1310.809814453125	1555.793579101562	328.216613769531	140.0883483886718	1507.002075195312	258.7027587890624	-524.66259765625	1775.079345703125	431.838897705078	-554.8632202148438	1733.667236328125	275.3277587890623	-690.7708129882812	1735.81396484375	298.4655151367186	-743.0194702148438	1576.088134765625	292.693420410156	-444.4147949218751	1589.860473632812	306.769805908203	-588.1663208007812	1497.0263671875	400.9515380859373	231.8069915771484	1581.616455078125	241.0223541259765	-1419.926879882812	1563.82421875	294.7754821777341	
115	0.95	-657.1082153320312	1780.605590820312	445.5117797851561	-778.8270263671875	91.30368041992189	190.2541198730468	-590.4791870117188	1329.076171875	446.4582214355468	-553.797119140625	99.92134094238283	240.4021301269531	-434.1245117187501	541.9619750976562	262.9886779785155	-588.83544921875	1316.529541015625	208.7071228027342	-1052.56884765625	1425.03564453125	304.6435852050779	-1327.009765625	1510.417602539062	278.5505676269528	-598.7199096679688	1592.236938476562	269.2381591796873	-465.9793395996094	1063.471435546875	397.6248779296874	-484.2936401367188	35.50577926635745	420.8108215332031	-763.4337768554688	36.74953460693362	426.5223083496093	118.7975692749023	1583.677124023438	275.7732849121093	-533.5906372070312	1111.2353515625	202.4119415283202	-663.0023193359375	1110.703125	192.4801635742186	-760.5821533203125	1075.633544921875	373.4629516601561	-553.4976806640625	500.6376342773438	263.1962890624999	-666.6727294921875	503.7244262695312	285.6954040527343	-779.7523193359375	547.0430297851562	278.3858337402342	-466.0902709960938	85.54884338378908	191.0826416015624	-690.2546997070312	97.4844207763672	228.9597167968749	-526.033203125	63.23994827270509	152.6903991699218	-732.1616821289062	71.96723937988283	150.2989196777343	-133.9974822998047	1443.83447265625	296.4393615722655	-133.5430603027344	1490.1767578125	239.7451934814452	-1059.627075195312	1475.503662109375	255.4847869873045	-1310.739135742188	1555.8193359375	328.1855773925778	140.1242218017578	1506.9287109375	258.6577758789061	-524.6270141601562	1775.045776367188	431.9036560058592	-554.8102416992188	1733.694946289062	275.3752136230467	-690.7189331054688	1735.839721679688	298.5083618164061	-742.9619140625	1576.0986328125	292.629455566406	-444.3617858886719	1589.832763671875	306.723175048828	-588.1304321289062	1497.039672851562	400.9154357910155	231.8774871826172	1581.520874023438	240.9533233642578	-1419.863891601562	1563.866577148438	294.7182312011716	
116	0.9583333333333334	-657.0541381835938	1780.5634765625	445.5600585937498	-778.8236083984375	91.30516052246095	190.2519226074218	-590.4632568359375	1329.08056640625	446.4064941406249	-553.7884521484375	99.92835235595705	240.4194793701171	-434.2347412109376	542.5016479492188	263.1398010253905	-588.789306640625	1316.530395507812	208.689727783203	-1052.521606445312	1425.05517578125	304.6361083984373	-1326.958862304688	1510.434814453125	278.5365905761716	-598.6454467773438	1592.229736328125	269.2062988281248	-465.9904174804688	1063.464233398438	397.6365661621093	-484.3010559082032	35.50871658325198	420.8139038085937	-763.4365234375	36.75428009033206	426.5261230468749	118.8653564453125	1583.603271484375	275.6942138671874	-533.5948486328125	1111.21337890625	202.4273986816405	-663.0006713867188	1110.69482421875	192.4652709960936	-760.5925903320312	1075.62744140625	373.4481506347655	-553.4988403320312	500.6397399902344	263.1948852539061	-666.6827392578125	503.7142639160156	285.709014892578	-779.7686767578125	547.044921875	278.3909606933592	-466.2419738769531	85.9076614379883	190.9040832519531	-690.2532958984375	97.48577117919923	228.9480743408202	-526.0238647460938	63.2346534729004	152.6935424804687	-732.1566772460938	71.9655227661133	150.2948455810546	-133.9482116699219	1443.797485351562	296.4007263183593	-133.4833679199219	1490.125732421875	239.7182312011718	-1059.573120117188	1475.514038085938	255.450744628906	-1310.66943359375	1555.868530273438	328.1295166015622	140.1702728271484	1506.860961914062	258.5994873046874	-524.5719604492188	1775.011474609375	431.9381408691405	-554.7447509765625	1733.738403320312	275.4011840820311	-690.6644287109375	1735.865234375	298.529815673828	-742.8861083984375	1576.10546875	292.568908691406	-444.3146667480469	1589.811157226562	306.6772155761717	-588.086181640625	1497.038818359375	400.872833251953	231.9202117919922	1581.444091796875	240.8758392333984	-1419.7861328125	1563.917114257812	294.6459045410153	
